<svg xmlns="http://www.w3.org/2000/svg" viewBox="326.98 171 682.02 414.38"><path fill="#3d3630" fill-rule="evenodd" d="M327 176.271v5.271l6.094 1.159c13.034 2.477 17.361 8.319 18.913 25.536 1.196 13.265 1.22 162.674.029 182.125-.79 12.892-1.256 15.568-3.521 20.198-3.104 6.342-6.718 8.846-14.949 10.353-3.263.598-6.076 1.087-6.25 1.087s-.316 2.25-.316 5v5h94v-4.955c0-5.517 1.133-4.82-10.75-6.61-8.923-1.343-14.506-6.013-17.514-14.65-.766-2.201-1.324-19.377-1.69-52.036l-.546-48.75 17.5.006c9.625.003 19.3.499 21.5 1.1 8.457 2.314 15.921 13.758 18.03 27.645l.646 4.25H458v-79.105l-5.24.303-5.241.302-.781 5.457c-.89 6.221-4.807 15.416-8.046 18.887-1.206 1.293-3.992 3.319-6.192 4.503-3.611 1.943-5.827 2.185-22.788 2.481l-18.788.329.288-46.329c.278-44.706.361-46.468 2.372-50.328 1.272-2.442 3.645-4.872 6.092-6.238 11.617-6.486 46.46-4.646 59.772 3.155 10.305 6.039 17.705 17.8 22.074 35.083l2.275 9h5.852c3.242 0 5.846-.446 5.839-1-.049-4.172-3.772-61.271-4.059-62.25-.289-.987-17.635-1.25-82.398-1.25H327zm196 47.898c-4.607 1.301-8.217 4.853-13.29 13.072-2.628 4.26-5.276 7.262-7.186 8.147-1.918.889-8.782 1.661-18.774 2.112l-15.75.711v5.088l15.789-.548c21.72-.754 24.29-1.901 31.351-13.991 5.806-9.94 5.903-9.97 32.272-10.022 27.599-.053 27.451-.102 34.128 11.124 6.728 11.31 7.011 11.417 32.46 12.279 11.275.382 22.009 1.164 23.853 1.737 5.013 1.557 9.484 5.396 12.16 10.44 2.731 5.148 2.625 5.534-3.979 14.524-5.076 6.91-9.44 17.497-11.586 28.106-2.016 9.964-1.56 26.946.982 36.552 2.126 8.036 8.011 19.583 12.688 24.897l3.809 4.327-2.845 4.485c-5.971 9.416-10.416 10.778-35.21 10.785-15.262.005-18.85.275-19.861 1.493-.679.818-.974 2.168-.654 3 .488 1.273 3.433 1.513 18.562 1.513 18.554 0 25.992-.937 32.149-4.051 3.265-1.651 8.97-7.25 11.432-11.22.878-1.416 1.788-1.129 7.485 2.362 16.866 10.336 40.158 11.651 57.683 3.258 8.143-3.9 20.659-16.623 25.625-26.048l3.793-7.199-2.689-1.762c-2.621-1.717-2.73-1.704-4.293.496-6.097 8.583-9.689 12.389-15.109 16.008-8.095 5.406-12.52 6.623-23.995 6.601-8.57-.017-10.167-.331-16.315-3.21-12.261-5.741-21.101-17.303-25.409-33.235-2.482-9.178-2.473-33.883.017-43 4.05-14.834 11.63-25.877 21.084-30.718 7.467-3.824 19.196-4.381 26.457-1.258 8.881 3.82 11.744 9.898 8.771 18.621-2.001 5.873-2.021 8.651-.088 12.388 2.057 3.978 6.592 6.11 12.998 6.11 9.116 0 13.496-4.83 13.475-14.861-.036-17.646-20.636-32.222-45.604-32.267-14.197-.026-24.897 3.08-35.803 10.393l-6.286 4.215-2.327-4.386c-3.238-6.104-9.366-11.034-16.219-13.048-5.395-1.585-5.748-1.879-5.75-4.784-.002-5.079-2.945-6.842-12.111-7.258-4.349-.198-9.04-.075-10.424.272-3.772.947-6.466 4.162-6.466 7.717 0 3.128-.011 3.134-4.373 2.537-7.151-.981-9.388-2.553-13.114-9.217-4.1-7.33-9.001-11.942-14.236-13.396-4.753-1.32-44.529-1.232-49.277.109m87 20.331c0 2.471.1 2.5 8.5 2.5s8.5-.029 8.5-2.5-.1-2.5-8.5-2.5-8.5.029-8.5 2.5m-70.245 4.539c-24.138 2.845-45.613 18.289-56.263 40.461-11.079 23.063-9.887 48.254 3.311 69.995 4.978 8.2 16.26 19.316 24.697 24.332l7 4.162-27.568.006c-31.077.006-35.258-.634-40.653-6.218-5.886-6.093-7.232-10.736-7.257-25.027L443 344h-6.256l.516 13.75c.598 15.905 2.089 21.244 7.488 26.802 1.99 2.05 6.124 4.901 9.185 6.337l5.567 2.611 47 .289c40.081.246 48.178.051 55-1.324 26.14-5.272 46.937-23.735 55.158-48.965 3.491-10.715 4.318-27.014 1.919-37.799-2.185-9.822-8.419-22.546-15.091-30.804-14.987-18.549-39.921-28.666-63.731-25.858m251.745 3.613c-6.947 2.475-18.959 5.288-28.137 6.59-7.855 1.115-8.898 1.504-9.171 3.42-.263 1.844.513 2.401 5.273 3.785 7.052 2.05 11.362 5.841 12.564 11.053.508 2.2.934 20.005.947 39.566.014 21.34.461 37.94 1.117 41.5 4.088 22.186 21.945 34.17 45.744 30.698 13.736-2.004 24.644-8.5 31.832-18.955l3.831-5.572.608 7.881c.76 9.859 1.834 16.228 2.841 16.851 1.013.626 37.137-9.155 38.371-10.389 1.754-1.754-.156-3.876-4.084-4.54-5.644-.954-10.112-4.04-12.033-8.312-1.49-3.312-1.714-9.867-2.007-58.728-.182-30.25-.665-55.343-1.074-55.761-.41-.419-3.417.169-6.683 1.306-8.307 2.891-20.708 5.701-28.744 6.512-6.538.661-6.792.786-6.5 3.211.241 1.992 1.165 2.777 4.389 3.724 6.325 1.857 10.226 4.591 12.079 8.464 1.507 3.151 1.682 7.686 1.575 40.913l-.12 37.37-2.615 5.345c-5.202 10.633-15.742 16.825-28.506 16.748-7.673-.046-13.107-2.415-17.799-7.759-6.132-6.984-6.355-8.943-7.354-64.555-.499-27.764-1.23-50.776-1.626-51.136s-2.518-.013-4.718.77m151.412-.207c-6.958 1.919-16.54 7.401-20.395 11.668-1.896 2.098-4.7 6.194-6.232 9.101-2.554 4.847-2.779 6.158-2.714 15.786.05 7.356.549 11.548 1.667 14 4.749 10.414 13.475 17.343 32.842 26.078 23.573 10.631 29.522 14.667 33.054 22.422 5.415 11.888-1.271 26.088-14.073 29.889-7.128 2.117-11.501 2.032-19.206-.372-12.743-3.978-21.333-13.49-27.379-30.32-3.186-8.867-3.406-9.185-6.133-8.871-1.555.179-2.977.475-3.159.657-.183.182.039 9.936.492 21.674l.824 21.343 3-.334c7.92-.881 13.664-.421 21 1.681 22.081 6.329 44.058 2.678 57.615-9.57 12.187-11.01 14.455-34.507 4.582-47.452-5.288-6.933-11.959-11.313-33.197-21.796-11-5.43-21.746-11.338-23.879-13.13-11.628-9.765-9.606-27.455 3.862-33.786 5.954-2.799 17.218-2.886 23.178-.18 8.52 3.869 16.728 15.713 20.354 29.37 1.206 4.545 1.441 4.786 4.38 4.5 2.49-.243 3.091-.749 3.034-2.553-.04-1.238-.152-9.914-.25-19.281-.201-19.106-.262-19.252-7.158-16.976-3.475 1.147-4.781.974-14.075-1.864-11.368-3.472-23.284-4.098-32.034-1.684m-408.886 3.056c-8.623 1.951-21.217 8.127-28.164 13.812-10.398 8.51-19.661 23.303-22.973 36.687-1.87 7.56-1.586 23.964.555 31.983 7.903 29.597 34.3 50.049 64.536 50.002 20.049-.031 35.346-6.805 48.998-21.7 6.793-7.411 13.837-20.627 16.142-30.285 2.224-9.316 1.547-25.167-1.473-34.521-6.778-20.995-22.976-37.621-42.932-44.068-10.231-3.305-24.94-4.115-34.689-1.91m1.75 5.025c-25.352 5.046-45.409 26.856-48.642 52.897C482.583 350.086 511.172 383 547.57 383c17.117 0 31.326-5.883 43.452-17.99 27.391-27.349 23.851-72.342-7.431-94.438-13.991-9.883-30.844-13.423-47.815-10.046m-1.652 6.052q-14.598 3.927-26.34 16.286l-7.255 7.636 28.887.266c15.887.146 29.043.108 29.235-.084s-2.847-6.049-6.753-13.015c-7.957-14.194-7.438-13.87-17.774-11.089m16.876-1.3c0 .295 2.613 4.965 5.808 10.379s9.589 16.525 14.21 24.692c9.673 17.091 8.412 16.863 16.029 2.904 2.326-4.264 5.068-8.948 6.093-10.409l1.863-2.657-4.43-5.438c-5.269-6.468-15.911-13.983-23.625-16.684-5.619-1.967-15.948-3.772-15.948-2.787m-39.229 31.499-14.73.276-2.261 7.224c-3.202 10.228-3.075 24.497.303 34.085 1.329 3.774 2.822 6.85 3.317 6.836.841-.024 29.057-48.271 28.401-48.563-.165-.074-6.929-.011-15.03.142m25.355.153c-4.37.57-4.379.579-10.729 11.57-3.495 6.05-6.364 11.584-6.376 12.298-.012.713 2.953 6.676 6.587 13.25L533.216 346h29.421l6.682-11.896c3.674-6.543 6.681-12.396 6.681-13.007 0-1.176-11.529-21.946-13.06-23.528-1.022-1.055-19.175-1.504-25.814-.639m46.373 23.358c-7.599 13.317-14.003 24.562-14.233 24.989-.23.428 6.251.653 14.402.5l14.819-.277 2.447-6.5c3.482-9.246 3.586-25.475.228-35.239-1.275-3.707-2.662-6.952-3.083-7.212s-6.982 10.422-14.58 23.739m-42.354-17.218c-6.856 2.746-12.145 9.665-12.145 15.89 0 4.322 3.501 4.287 4.367-.044 1.262-6.31 7.359-11.916 12.961-11.916 2.705 0 5.194-2.346 4.199-3.956-.788-1.275-6.171-1.26-9.382.026m-25.755 25.059c-1.837 2.387-13.39 23.504-13.39 24.476 0 .511 2.031 3.251 4.512 6.088 5.358 6.124 14.401 12.382 22.003 15.227 6.99 2.615 16.771 4.243 16.142 2.687-.376-.932-24.897-44.334-27.388-48.478-.698-1.161-.985-1.161-1.879 0m23.416 27.121c1.083 1.788 4.298 7.413 7.145 12.5 4.913 8.779 5.346 9.25 8.507 9.25 5.069 0 15.347-3.51 22.042-7.528 6.467-3.882 10.938-7.796 15.672-13.722l2.996-3.75h-58.331zm185.776 56.504c-4.448 11.01-12.933 19.808-22.449 23.278-5.564 2.028-6.133 2.502-6.133 5.102 0 2.858.018 2.866 6.441 2.866 3.977 0 6.728.465 7.192 1.216.414.668.794 17.656.845 37.75.102 39.817.356 41.95 5.76 48.507 4.932 5.983 9.918 8.003 19.762 8.005 12.831.004 21.491-4.587 25.523-13.528 1.434-3.181 1.526-4.186.496-5.427-1.835-2.211-2.612-1.918-4.953 1.871-5.327 8.619-19.166 8.816-23.799.339-1.583-2.897-1.798-7.106-2.063-40.503l-.295-37.27 21.295.27 21.296.27.51 38c.488 36.398.602 38.201 2.697 42.758 5.4 11.745 18.194 16.399 33.374 12.139 7.104-1.993 12.25-6.144 15.453-12.463 2.453-4.843 2.455-4.869.428-5.955-1.77-.947-2.598-.471-6.318 3.639-4.042 4.464-4.614 4.752-10.26 5.161-5.286.382-6.329.138-8.992-2.103-5.211-4.384-5.556-6.997-6.069-45.926l-.47-35.75H822v-8l-13.75.002-13.75.001.301-14.501.302-14.502h-2.316c-1.897 0-2.924 1.305-5.67 7.198-4.311 9.254-12.565 17.752-19.545 20.126-3.792 1.29-8.575 1.676-20.75 1.676H731v-14.5c0-14.371-.02-14.5-2.25-14.496-1.747.003-2.679 1.065-4.168 4.75m143.464 22.844c-8.842 2.376-14.14 5.485-21.122 12.394-10.566 10.457-14.882 22.195-14.909 40.548-.047 31.988 17.921 51.46 47.485 51.46 18.822 0 30.516-6.55 40.366-22.611 3.712-6.052 3.817-6.953.987-8.467-1.785-.956-2.321-.838-3.183.703-2.293 4.097-10.421 11.728-15.15 14.224-4.461 2.354-6.134 2.65-15.02 2.65-9.216.001-10.42-.231-15.356-2.965-11.098-6.148-17.738-18.894-19.682-37.784l-.695-6.75H922v-3.34c0-5.778-3.876-18.791-7.088-23.796-9.317-14.521-28.539-21.192-46.866-16.266m92.688-.577c-8.884 2.251-17.439 8.533-20.951 15.384-2.927 5.709-3.607 17.15-1.368 23.012 2.594 6.793 9.989 12.982 22.399 18.746 20.74 9.635 23.004 10.893 26.439 14.695 11.183 12.379-.027 30.022-17.595 27.691-12.656-1.679-21.837-10.053-27.162-24.776-2.208-6.106-4.489-8.18-6.635-6.034-.905.905.491 32.947 1.48 33.935.255.256 2.271-.077 4.479-.738 3.441-1.031 5.211-.898 12.38.93 11.14 2.842 25.113 2.899 34.048.139 13.146-4.06 20.724-14.268 20.742-27.939.02-14.962-5.034-20.276-31.457-33.076C956.725 465.909 954 463.498 954 455.169c0-9.752 6.042-15.169 16.918-15.169 12.606 0 19.275 5.525 24.653 20.423 1.894 5.247 2.572 6.122 4.969 6.409l2.776.331-.613-15.703c-.337-8.637-.815-15.905-1.061-16.151s-2.189.074-4.318.712c-3.145.942-4.991.857-9.847-.458-7.378-1.997-21.689-2.822-26.743-1.542m-559.358 50.648C356.378 544.866 359 541.136 359 544.947V548h66l-.022 10.25c-.027 12.503-1.833 17.504-7.252 20.076-1.941.921-4.585 1.681-5.877 1.689-3.256.022-5.11 1.398-4.697 3.487.322 1.633 2.484 1.769 29.348 1.845 28.478.08 29.005.045 29.297-1.963.251-1.727-.541-2.232-5.099-3.252-9.645-2.159-12.626-7.775-12.674-23.882L448 548h11.481c11.102 0 11.496-.074 11.946-2.25.633-3.064 3.589-24.943 3.58-26.5-.011-2.052-4.798-1.485-5.475.649C467.274 527.013 458.359 534 451.54 534H448V434h-8.748zM503.5 437.492c-5.5 1.819-12.25 3.628-15 4.021-2.75.394-5.339.917-5.753 1.162-1.395.827 1.305 4.325 3.338 4.325 3.519 0 7.587 2.796 9.024 6.203 1.133 2.686 1.391 13.865 1.391 60.297 0 31.35-.343 58.225-.762 59.722-1.078 3.851-4.333 6.534-8.853 7.297-2.93.495-3.885 1.127-3.885 2.569 0 1.832 1.05 1.912 25 1.912 23.764 0 25-.093 25-1.872 0-1.399-.973-2.028-3.85-2.488-2.117-.339-5.051-1.561-6.52-2.716-5.238-4.121-5.63-6.098-5.63-28.421v-20.597l3.873 3.112c7.449 5.987 22.425 8.594 34.015 5.921 23.095-5.324 37.211-27.775 35.801-56.939-.882-18.226-7.144-31.96-17.942-39.353-8.049-5.51-12.93-6.96-23.765-7.06-8.827-.081-10.002.151-16.194 3.198-3.673 1.807-8.709 5.26-11.192 7.674l-4.515 4.387-.29-7.662c-.225-5.922-.632-7.7-1.791-7.83-.825-.092-6 1.32-11.5 3.138m128.751-2.009c-14.243 4.005-22.078 11.329-23.828 22.274-.711 4.448 1.328 9.504 4.522 11.213 1.058.567 3.999 1.03 6.535 1.03 3.562 0 5.169-.558 7.065-2.455 2.883-2.882 3.06-5.394.797-11.319-1.532-4.011-1.535-4.599-.038-7.738 2.333-4.891 6.784-6.93 15.196-6.962 5.755-.021 7.581.388 10.265 2.303 5.42 3.866 6.616 7.293 7.036 20.171l.376 11.5-14.838 4.842c-33.033 10.779-41.633 17.751-41.633 33.75 0 15.326 10.504 24.932 27.226 24.896 11.021-.023 19.84-3.672 26.386-10.918 3.417-3.782 3.527-3.824 4.096-1.555.788 3.139 5.18 8.224 8.655 10.021 4.725 2.443 14.669 1.897 20.762-1.139 5.903-2.942 9.108-7.373 6.749-9.331-1.036-.86-2.216-.73-4.868.534-4.384 2.091-8.098 1.266-10.449-2.32-1.566-2.387-1.819-6.386-2.263-35.808l-.5-33.12-3.022-5.926c-3.254-6.379-9.289-11.369-16.301-13.479-6.188-1.861-22.021-2.125-27.926-.464m236.725 6.767q-10.88 5.505-15.407 26l-.607 2.75h47.268l-.685-5.75c-.952-7.99-2.278-12.108-5.394-16.754-3.36-5.01-9.987-8.496-16.151-8.496-2.761 0-6.34.892-9.024 2.25M533.5 446.328c-5.884 2.307-9.35 4.679-12.9 8.826l-3.6 4.206v27.419c0 30.443.166 31.372 6.74 37.757 4.516 4.386 9.641 6.725 15.898 7.257 6.749.573 11.178-.998 16.825-5.969 8.918-7.85 12.933-19.53 12.832-37.324-.126-22.209-7.076-36.332-20.675-42.014-4.178-1.746-10.89-1.816-15.12-.158m-124.184 42.446a10204 10204 0 0 1-24.256 32.976L375.987 534H425v-33c0-18.15-.113-32.989-.25-32.976s-7.083 9.351-15.434 20.75M647 487.025c-18.842 8.419-24.166 14.863-22.47 27.196 1.247 9.064 9.365 14.932 18.379 13.286 4.982-.91 11.536-4.913 14.581-8.905 2.54-3.331 2.556-3.472 2.284-20.258l-.274-16.904z"/></svg>