<svg xmlns="http://www.w3.org/2000/svg" viewBox="197.12 135.55 267.65 132.55"><path fill="#3d3630" fill-rule="evenodd" d="M289.5 135.965c-6.215 1.171-11.082 3.69-13.651 7.066-1.292 1.698-4.824 5.65-7.849 8.784-4.039 4.183-6.098 5.61-7.75 5.371-2.186-.316-3.255-2.186-1.25-2.186.55 0 1-1.323 1-2.941s-.45-3.219-1-3.559-1 .056-1 .88c0 2.377-11.342 3.381-14.707 1.301-.617-.381-1.273-.273-1.458.241-.187.521-1.432.343-2.816-.402l-2.48-1.337 2.48.023c4.347.041 13.02-1.46 13.569-2.349.814-1.316-12.633-.868-16.588.553-3.164 1.137-3.53 1.664-3.811 5.502-.258 3.517.136 4.66 2.301 6.666 2.473 2.293 3.238 2.416 14.312 2.304 6.604-.067 10.392-.412 8.698-.792-2.941-.66-2.957-.697-.816-1.881 5.51-3.049 6.806.162 3.635 9.008-1.88 5.245-1.018 4.762-18.319 10.258-15.268 4.85-23.487 8.095-27.135 10.715-12.35 8.868-18.543 23.55-17.637 41.809.407 8.178.933 10.441 3.783 16.254 4.126 8.418 9.728 14.14 17.489 17.865 5.175 2.485 7.181 2.881 14.593 2.881 10.305.001 16.228-1.776 30.423-9.126l10.017-5.186 3.157 3.156c2.766 2.767 3.827 3.157 8.584 3.157 9.32 0 14.271-2.497 23.745-11.977 8.242-8.248 13.484-19.695 16.463-35.953 1.623-8.86 3.083-12.396 2.299-5.57-1.187 10.329 4.12 42.333 7.354 44.352 3.234 2.02 4.167.413 3.571-6.155-.973-10.736 3.258-26.362 10.035-37.059 1.442-2.276 5.223-6.671 8.402-9.766 9.552-9.302 24.484-13.857 35.583-10.854 2.626.711 5.224 1.613 5.774 2.004 3.053 2.173 15.637 5.323 21.091 5.28 14.247-.113 29.194-12.359 37.206-30.484 4.389-9.931 3.795-10.49-1.358-1.275-4.997 8.935-13.479 17.25-21.837 21.407-5.866 2.916-7.792 3.378-13.954 3.343-4.154-.023-9.033-.745-11.648-1.724-15.519-5.805-25.965-6.957-36.021-3.97-16.718 4.965-31.177 22.206-35.442 42.263l-1.14 5.363-1.276-8.363c-2.2-14.413-2.938-18.277-4.038-21.158-1.032-2.702-1.131-2.735-2.948-1-1.04.994-2.198 3.99-2.593 6.709-.91 6.266-5.659 19.755-9.16 26.019-6.05 10.825-17.468 20.445-26.752 22.539-3.737.843-10.062-.242-11.088-1.903-.291-.471 4.08-3.558 9.714-6.86 21.273-12.465 22.293-13.884 21.297-29.651-.466-7.381-.347-9.597.445-8.327.593.951 1.118 5.114 1.166 9.25.051 4.327.516 7.52 1.096 7.52 1.394 0 .354-18.664-1.255-22.5-3.254-7.761-5.677-11.934-10.151-17.487-2.665-3.307-4.449-6.013-3.965-6.013.485 0 3.696 3.009 7.136 6.686 10.799 11.544 15.253 25.179 11.665 35.71-1.968 5.775-1.214 5.974 1.337.354 3.413-7.52 1.835-18.253-4.12-28.015-2.177-3.568-2.907-6.009-2.907-9.719 0-3.833.316-4.832 1.399-4.416 1.932.741 2.915-1.213 2.147-4.272-.542-2.162-1.067-2.474-3.381-2.011-2.221.444-3.104.005-4.669-2.323-1.061-1.579-2.957-3.339-4.213-3.911-1.255-.572-2.283-1.768-2.283-2.657 0-.89-.742-2.873-1.648-4.408-2.02-3.419-6.965-5.043-17.558-5.77l-7.735-.53 2.221-2.796c1.221-1.539 3.003-3.916 3.96-5.284 2.562-3.662 11.461-6.652 19.548-6.568 11.253.118 11.969 1.781.8 1.86-8.729.062-10.428.372-14.232 2.601-2.375 1.393-4.853 3.528-5.504 4.746-1.132 2.115-1.032 2.1 2.231-.342 6.024-4.509 9.113-5.233 20.216-4.739 5.641.251 11.144.971 12.229 1.6 1.696.983 1.342 1.15-2.528 1.189-3.281.033-4.094.308-3 1.015.825.533 2.983.976 4.795.985 4.567.021 7.866 3.569 8.74 9.402.971 6.47 2.97 7.416 2.154 1.019l-.625-4.906 1.587 3c2.613 4.94 6.556 8.625 11.849 11.072 4.844 2.241 4.9 2.315 1.815 2.37-7.057.128-10.789 3.663-6.366 6.031 1.072.574 2.539 2.277 3.26 3.785 1.607 3.364 4.585 3.908 9.254 1.693 4.014-1.905 4.58-4.517 1.829-8.445l-1.709-2.439 2.971 2.116c1.634 1.163 3.556 3.848 4.27 5.966 2.745 8.142 4.49 11.461 5.329 10.138 1.212-1.91 1.029-4.352-.794-10.624-2.411-8.295-5.915-11.268-16.65-14.128-9.395-2.502-11.696-4.353-13.098-10.535-1.937-8.545-4.689-11.219-14.698-14.281-7.825-2.393-16.068-3.261-21.413-2.254m-70.31 7.615c-2.389 1.673-2.937 6.155-1.16 9.475 1.201 2.246 6.077 4.981 8.67 4.864 1.299-.059 1.047-.416-.902-1.281-3.693-1.639-7.807-5.649-7.758-7.562.024-.949.631-.487 1.525 1.161 1.57 2.894 6.121 5.764 9.135 5.761 1.114-.001.492-.668-1.629-1.75-1.886-.961-4.294-2.929-5.352-4.373-1.592-2.174-1.72-3.005-.74-4.836 1.538-2.873.934-3.366-1.789-1.459m64.842 2.47c-.053 2.557 2.142 3.95 6.225 3.95 5.006 0 12.743-1.959 12.743-3.226 0-.543-.788-.677-1.75-.298-3.044 1.2-11.623 2.317-13.218 1.721-.842-.315-2.08-1.276-2.75-2.135-1.096-1.405-1.222-1.406-1.25-.012m19.019 3.783c-3.616 1.939-7.162 6.167-5.173 6.167.617 0 1.122-.367 1.122-.816s1.787-1.82 3.97-3.047c6.555-3.684 6.63-5.816.081-2.304m-53.367 4.917c-.238.412-.072 1.65.371 2.75.702 1.746.813 1.651.875-.75.069-2.713-.399-3.464-1.246-2m3.474 1.25c0 1.375.227 1.938.504 1.25.278-.687.278-1.812 0-2.5-.277-.687-.504-.125-.504 1.25m2.921-.417c.048 1.165.285 1.402.604.605.289-.722.253-1.585-.079-1.917s-.568.258-.525 1.312M236.158 157c0 1.375.227 1.938.504 1.25.278-.687.278-1.812 0-2.5-.277-.687-.504-.125-.504 1.25m2.842-.618c0 .825.45 1.778 1 2.118s1-.057 1-.882-.45-1.778-1-2.118-1 .057-1 .882m4 .618c0 1.1.408 2 .906 2s.671-.9.384-2-.696-2-.907-2c-.21 0-.383.9-.383 2m3.731.08c.354 1.352.807 1.806 1.057 1.057.24-.722-.038-1.787-.62-2.369-.742-.742-.872-.351-.437 1.312m20.019-.121c-2.119 1.685-2.75 3.043-2.75 5.922 0 2.055-.661 4.61-1.468 5.678-.808 1.067-1.483 2.232-1.5 2.589-.045.912 19.345.518 20.033-.408.771-1.036 11.267 2.669 15.224 5.375 1.766 1.208 5.157 4.038 7.536 6.29l4.326 4.095-.674-4c-1.045-6.206-4.8-12.734-8.319-14.467-1.712-.843-3.123-2.299-3.135-3.236-.013-.937-.546-2.851-1.186-4.255-1.413-3.102-5.207-4.257-16.856-5.132-7.748-.583-8.719-.449-11.231 1.549m31.533 2.442c.192.605 2.735 2.224 5.652 3.599 17.954 8.464 21.591 10.673 24.377 14.811 1.636 2.43 3.374 7.002 4.156 10.933l1.344 6.756.084-5.5c.172-11.205-5.644-18.569-18.716-23.698-2.526-.991-7.439-3.196-10.919-4.901s-6.17-2.604-5.978-2m-82.783.534c-6.862 1.671-11.606 5.452-15.133 12.065-1.569 2.941-1.833 5.428-1.652 15.567.118 6.637.652 13.162 1.186 14.5l.972 2.433.064-2.309c.035-1.273.512-2.032 1.063-1.691.637.393 1-2.462 1-7.859 0-11.423.274-12.002 4.502-9.507 4.132 2.438 11.928 2.755 15.944.65 2.848-1.494 2.708-1.528-4.223-1.032-7.046.504-13.223-.855-13.223-2.909 0-.502.925-.418 2.055.187s2.593.91 3.25.678-.492-1.138-2.555-2.014c-2.062-.876-3.75-2.002-3.75-2.503 0-1.402 4.872-8.261 7.318-10.301 1.2-1.002 4.995-2.773 8.432-3.937s6.25-2.304 6.25-2.535c0-.658-8.182-.291-11.5.517m15.095 3.678c-.874 2.278.617 3.635 3.54 3.222 1.587-.225 2.365-.993 2.365-2.335 0-2.662-4.939-3.404-5.905-.887m34.405-.692c0 1.146 3.055 1.792 14.5 3.063 19.259 2.139 19.518.809.391-2.005-15.586-2.293-14.891-2.243-14.891-1.058m51 .079c-1.135.734-.695.973 1.809.985 1.955.009 3.056-.394 2.691-.985-.776-1.256-2.556-1.256-4.5 0m-99.681 2.084c-4.509 1.685-7.387 8.079-5.065 11.251.739 1.009 2.897 2.201 4.795 2.648l3.451.812-3.309.103c-4.378.135-3.132 2.102 1.331 2.102 4.368 0 13.257-3.479 16.478-6.45 1.375-1.268 3.497-2.818 4.716-3.445 1.916-.985 2.439-.798 3.865 1.378.907 1.384 1.999 2.517 2.427 2.517 1.545 0 2.023-3.375.942-6.653-1.627-4.929-5.446-4.645-9.897.736-3.493 4.224-7.755 7.548-8.597 6.706-.265-.265.17-2.042.966-3.949 1.166-2.79 1.212-3.942.233-5.903-1.02-2.046-1.961-2.445-5.865-2.485-2.558-.026-5.47.258-6.471.632m16.431-.422c.688.278 1.813.278 2.5 0 .688-.277.125-.504-1.25-.504s-1.937.227-1.25.504m-26.942 3.088c-1.412 1.512-3.047 4.325-3.634 6.25-1.503 4.932-2.521 13.89-1.363 12 .505-.825 1.197-3.645 1.537-6.267.68-5.242 2.71-9.791 5.705-12.786 1.071-1.071 1.581-1.947 1.134-1.947s-1.968 1.238-3.379 2.75m9.272.665c-2.256 2.401-2.257 2.42-.239 3.5 3.732 1.997 10.311-1.821 7.979-4.631-1.681-2.027-5.266-1.503-7.74 1.131m10.314.587c-.106 2.972.912 3.931 2.112 1.989.716-1.159-.301-4.992-1.323-4.989-.376.002-.731 1.352-.789 3M342 166.373c0 .322 1.776 1.492 3.946 2.6 2.171 1.107 4.407 2.804 4.97 3.77s1.037 1.256 1.054.643c.034-1.249-4.812-6.386-6.025-6.386-.43 0-1.493-.273-2.363-.607s-1.582-.343-1.582-.02M306 169c0 1.244.662 1.994 1.75 1.985 1.496-.013 1.532-.157.25-.985q-1.5-.969-.25-.985c.688-.008 1.25-.465 1.25-1.015s-.675-1-1.5-1c-.833 0-1.5.889-1.5 2m-65.992-.25c.004.412 1.12 1.266 2.48 1.896 2.263 1.05 2.386.987 1.457-.75-.977-1.823-3.953-2.69-3.937-1.146m92.451 3.317c-1.04 1.682.144 2.179 3.458 1.451 4.386-.963 4.819-2.518.701-2.518-1.925 0-3.797.48-4.159 1.067M212 173.223c0 2.251 2.557 3.988 5.195 3.53 2.204-.383 2.217-.438.305-1.229-1.1-.455-2.787-1.504-3.75-2.331-1.559-1.339-1.75-1.336-1.75.03m59.612.596c-.279.451.82.624 2.441.387 1.621-.238 2.947-.607 2.947-.819 0-.762-4.893-.37-5.388.432m6.388.098c0 .504-1.238 1.406-2.75 2.005-2.355.931-1.96 1.022 2.75.629 5.378-.449 5.434-.427 2.5.977l-3 1.436 4.5-.506c3.38-.38 3.965-.268 2.352.448-3.048 1.354-4.212 3.483-1.477 2.701 1.169-.334 3.025-.862 4.125-1.174s2-.123 2 .42c0 .544-1.394 1.294-3.099 1.669-1.924.422-2.744 1.035-2.163 1.616s1.97.543 3.664-.101c4.344-1.651 6.508-1.113 2.848.708-3.262 1.624-4.642 4.003-1.657 2.858 3.181-1.221 6.407-1.805 6.407-1.159 0 .363-1.373 1.139-3.051 1.724-2 .697-2.939 1.626-2.725 2.698.398 2 4.477 1.661 6.989-.58.942-.841 2.404-1.263 3.25-.939.845.325 1.537.259 1.537-.146 0-1.706-9.503-11.411-13.421-13.708-4.208-2.466-9.579-3.35-9.579-1.576m31.638.583c.317.825.753 1.5.969 1.5s.393-.675.393-1.5-.436-1.5-.969-1.5-.709.675-.393 1.5m29.436.377c-1.334.373-2.605 1.217-2.825 1.875-.302.908.343.938 2.678.124 1.692-.59 3.327-1.479 3.634-1.974.622-1.007.043-1.011-3.487-.025m-17.166 4.873c1.651 2.063 3.723 5.486 4.605 7.608 1.926 4.633 2.808 4.387 1.48-.414-.997-3.607-6.437-10.944-8.113-10.944-.536 0 .377 1.688 2.028 3.75m-57.408.369c5.594 3.041 10.404 6.832 11.67 9.199.664 1.241-.786.464-3.798-2.035-5.491-4.556-14.092-7.789-18.417-6.924-1.583.317-3.1.215-3.372-.225-.602-.974-6.583-.21-6.583.84 0 .411 2.215 1.01 4.922 1.33 18 2.132 30.323 20.863 28.796 43.769-.522 7.834-3.655 15.979-7.304 18.99-1.595 1.316-1.647 1.259-.613-.682.621-1.165.909-2.338.639-2.607-.269-.269.197-3.123 1.036-6.342 2.287-8.78 1.945-17.228-1.065-26.336-4.434-13.415-14.184-21.95-26.911-23.558l-5-.631 4.5 2.749c7.517 4.594 12.153 11.569 14.546 21.887 2.023 8.722 1.383 11.577-.958 4.272-1.001-3.127-2.88-6.68-4.174-7.895-1.294-1.216-2.072-2.665-1.729-3.22s.204-.75-.308-.433c-.513.317-1.997-.226-3.298-1.208-2.788-2.103-7.952-1.37-11.29 1.602-8.599 7.657-5.684 28.289 5.046 35.725 4.756 3.296 8.674 3.312 13.467.055l3.766-2.559-.667 2.809c-3.89 16.384-19.151 25.021-34.793 19.691-6.543-2.229-15.699-10.874-18.664-17.622-1.731-3.938-2.432-7.773-2.792-15.26-.536-11.132-1.884-9.817-2.052 2-.268 18.933 14.119 35.39 31.194 35.681 7.452.127 9.544-.465 15.24-4.309 8.936-6.03 15.232-18.087 15.584-29.843.101-3.354.637-6.378 1.192-6.721.667-.412.799 2.352.39 8.149-1.281 18.16-10.24 30.057-26.124 34.695l-6.076 1.774 5.5-.58c10.691-1.127 19.063-6.953 25.311-17.614 5.74-9.794 5.784-28.485.097-41.345-3.445-7.788-2.297-7.948 1.487-.207 5.953 12.177 6.437 30.02 1.114 41.038-1.105 2.287-2.009 4.283-2.009 4.436 0 1.171 8.567-5.144 13.161-9.701 5.481-5.437 8.839-12.326 8.839-18.135 0-1 .45-1.818 1-1.818 2.352 0-.458 14.452-4.084 21-1.652 2.984-1.195 2.694 3.1-1.97 7.545-8.194 10.429-19.734 7.621-30.489-.856-3.276-1.385-6.126-1.177-6.334 1.029-1.029 2.998 5.064 3.649 11.293.702 6.716.718 6.635.403-2-.181-4.95-.656-10.125-1.056-11.5-.574-1.969-.464-2.254.518-1.34.895.833 2.072.871 4.187.134 1.618-.564 3.216-.75 3.552-.414s-.812 1.107-2.551 1.713-3.162 1.561-3.162 2.121c0 .991 1.672.766 5.25-.708.97-.399 1.75-.281 1.75.266 0 .542-1.35 1.545-3 2.228s-3 1.686-3 2.228.675.713 1.5.379l3-1.214c.825-.334 1.5-.163 1.5.379s-1.35 1.545-3 2.228-3 1.686-3 2.228.675.713 1.5.379c4.295-1.738 4.746-1.545 2 .857l-3 2.625 3-.624 3-.623-2.5 2.057c-1.375 1.131-2.837 2.067-3.25 2.079s-.75.488-.75 1.057c0 .693.68.671 2.055-.065 1.131-.605 2.593-.918 3.25-.696s-.267 1.163-2.055 2.09c-3.974 2.063-4.169 2.874-.5 2.075 2.724-.593 2.719-.578-.5 1.579-3.938 2.639-4.138 3.27-.611 1.929 4.141-1.574 3.952-.308-.295 1.978-3.826 2.061-3.83 2.069-.844 1.823 3.587-.296 4.646-1.603 6.837-8.436 2.242-6.995 2.103-15.06-.375-21.683-2.104-5.625-4.962-9.296-4.962-6.374 0 2.364-2.208 3.629-9.454 5.417-3.812.941-6.985 2.309-7.309 3.152-.314.82.179 4.306 1.096 7.747 1.615 6.063 2.204 11.299 1.152 10.247-.284-.283-1.19-3.103-2.014-6.267-.824-3.163-2.167-6.706-2.984-7.874-3.437-4.905-.215-12.175 6.263-14.132 1.238-.374 2.237-.987 2.222-1.362-.055-1.311-7.492-8.926-9.972-10.211-2.097-1.086-1.896-.624 1.25 2.87 2.063 2.29 3.75 4.479 3.75 4.864s-1.687-.919-3.75-2.897c-4.28-4.105-10.151-7.268-15.25-8.215l-3.5-.65zM338 179c-1.333.862-1.333.963 0 .914.825-.03 2.4-.441 3.5-.914l2-.859-2-.055c-1.1-.031-2.675.381-3.5.914m-26.333 4.667c-.367.366-.667 1.941-.667 3.5 0 2.355.422 2.833 2.5 2.833 2.715 0 3.227-1.772 1.465-5.066-1.072-2.003-2.149-2.417-3.298-1.267m-77.854 1.016c.721.289 1.584.253 1.916-.079s-.258-.568-1.312-.525c-1.165.048-1.402.285-.604.604M313 186.5c0 .825.436 1.5.969 1.5s.709-.675.393-1.5c-.317-.825-.753-1.5-.969-1.5s-.393.675-.393 1.5m-93 3.07c-3.065 1.422-7.382 4.594-9.75 7.164-6.144 6.667-5.219 6.806 1.542.232 6.163-5.994 8.63-6.97 17.583-6.96 7.172.007 11.851 1.52 17.101 5.528s6.007 3.271 1.274-1.238c-8.169-7.782-17.671-9.4-27.75-4.726m38.5-1.03c11.047 8.152 17.7 24.331 16.174 39.33-.368 3.622-.259 4.917.306 3.63.484-1.1.908-5.375.942-9.5.11-13.172-4.964-24.905-13.794-31.899-2.154-1.706-4.301-3.087-4.772-3.069-.471.017.044.696 1.144 1.508m-39.056 5.346c-5.36 2.435-11.851 10.18-14.527 17.335-3.068 8.205-2.447 22.017 1.319 29.337 5.516 10.719 15.867 17.548 26.21 17.292 3.33-.082 4.704-.329 3.054-.549-7.343-.976-12.376-3.461-16.981-8.384-5.265-5.629-7.785-10.74-9.526-19.319-1.013-4.992-.925-7.353.571-15.301 1.583-8.41 2.167-9.809 5.55-13.295 5.494-5.661 9.374-7.411 16.541-7.46 3.384-.023 5.634-.373 5-.777-2.278-1.449-13.105-.744-17.211 1.121m76.113-.304c-1.066.78-3.407 1.418-5.201 1.418s-4.359.5-5.699 1.11c-2.614 1.191-5.426 5.454-4.325 6.555.367.368.668-.082.668-.998 0-1.231.894-1.667 3.417-1.667 4.395 0 12.099-3.296 12.962-5.546.902-2.351.478-2.554-1.822-.872M226 196.713c-3.707 1.371-10.288 7.918-12.693 12.628-6.422 12.576-1.611 33.143 9.711 41.514 9.797 7.243 24.013 4.352 29.967-6.094l2.131-3.74-4.641 1.99c-5.092 2.183-8.177 2.474-10.475.989-1.159-.749-.84-.973 1.4-.985l2.901-.015-4.072-2.75c-6.658-4.497-9.762-9.915-11.749-20.503-.854-4.555 1.032-12.857 3.69-16.235 2.828-3.596.575-3.103-3.236.708-4.144 4.144-5.935 8.524-5.928 14.498.009 8.417 1.715 12.294 8.199 18.629 4.281 4.184 5.316 5.646 3.639 5.14-3.495-1.055-8.579-6.309-11.072-11.444-1.63-3.357-2.207-6.373-2.211-11.554-.006-8.345 2.182-13.347 7.846-17.931 3.054-2.471 4.696-3.049 8.689-3.053 4.179-.004 4.666-.194 3.222-1.255-1.687-1.24-12.402-1.616-15.318-.537m-22.436 9.994c-.542 1.425-.428 1.54.56.56.684-.679.991-1.486.683-1.793-.308-.308-.867.247-1.243 1.233m245.26 2.043c-3.155 3.716-6.685 11.096-9.218 19.27-1.611 5.198-3.387 8.987-4.555 9.716-1.777 1.11-1.874.947-1.352-2.27.488-3.003.291-3.466-1.471-3.466q-2.034 0-5.684 5.5c-3.493 5.262-6.273 7.446-4.762 3.74 2.445-5.994 5.861-10.419 8.441-10.935 4.099-.819 3.849-4.305-.309-4.305-3.134 0-3.804.562-12.535 10.5-1.933 2.2-3.034 3.017-2.447 1.816 1.688-3.453 1.33-6.316-.79-6.316-1.144 0-3.264 2.116-5.511 5.5-3.974 5.985-6.143 7.268-4.547 2.689 1.466-4.207 6.787-10.189 9.062-10.189 1.367 0 1.894-.554 1.664-1.75-.243-1.262-1.296-1.75-3.777-1.75-3.026 0-4.065.776-8.664 6.476-6.023 7.464-8.011 8.728-6.932 4.404.395-1.584 1.395-3.63 2.221-4.548.827-.917 1.354-2.712 1.172-3.989-.566-3.979-3.391-3.298-7.241 1.745-3.769 4.935-4.627 4.926-2.047-.022 1.744-3.343 1.218-5.868-1.122-5.39-.95.194-2.562 3.118-4.016 7.283-3.572 10.232-10.404 16.52-10.404 9.576 0-2.065.683-3.316 2.25-4.122 3.073-1.581 6.75-5.868 6.75-7.869 0-4.609-5.408-5.315-9.333-1.219-4.44 4.635-6.347 15.536-3.178 18.166.819.68 1.242 1.635.941 2.122-1.107 1.792-5.127.812-7.641-1.863-2.923-3.109-7.789-10.149-7.789-11.268 0-.407 1.353-1.3 3.008-1.985 4.207-1.743 10.656-8.257 12.469-12.595 2.146-5.137 1.941-9.714-.536-11.955-2.657-2.405-3.996-1.584-10.377 6.366-2.714 3.382-5.098 5.986-5.297 5.787s.877-2.888 2.391-5.975c2.03-4.139 2.459-5.908 1.635-6.732-.615-.615-1.65-.79-2.3-.388-1.806 1.115-6.424 12.047-9.311 22.036-3.774 13.063-4.134 15.839-2.258 17.396 2.256 1.872 4.178-.047 4.963-4.956.35-2.189.969-3.963 1.375-3.94s1.811 2.327 3.123 5.121c2.904 6.186 8.193 11.838 11.077 11.838 2.194 0 7.038-4.099 7.038-5.955 0-.575.72-1.045 1.6-1.045s3.175-1.575 5.1-3.5 4.303-3.5 5.285-3.5 2.617-1.238 3.633-2.75l1.848-2.75.517 3.396c.631 4.146 3.194 6.099 5.837 4.449 1.483-.926 2.049-.784 3.012.757 1.421 2.276 4.448 2.471 6.168.398.685-.825 1.735-1.5 2.335-1.5s-.961 2.137-3.468 4.75c-8.756 9.124-11.048 14.874-7.117 17.858 5.05 3.833 8.22.468 12.821-13.608 3.182-9.735 5.138-12.221 6.871-8.732 1.533 3.087 4.911 3.328 7.589.539 1.875-1.953 2.056-2 1.174-.307-.572 1.1-2.692 3.575-4.711 5.5-8.691 8.29-9.619 17.931-1.729 17.985 2.953.02 5.368-4.001 8.713-14.505 1.564-4.912 3.604-9.148 5.07-10.525l2.452-2.304.014 4.425c.02 6.52.92 8.869 3.661 9.557 2.894.727 6.208-1.96 10.342-8.384 2.385-3.705 2.901-4.052 4.022-2.702 2.082 2.509 5.194 1.254 8.27-3.336 4.008-5.979 2.79-9.029-1.332-3.337-4.355 6.011-6.536 5.558-3.41-.708 1.725-3.457 1.248-5.166-1.442-5.166-1.173 0-2.491 1.746-3.964 5.25-2.431 5.784-8.614 14.75-10.171 14.75-1.235 0-1.24-5.206-.01-10.531.513-2.217 3.409-7.733 6.438-12.257 6.022-8.998 8.197-14.626 7.194-18.621-.777-3.096-4.484-3.555-6.788-.841m.588 7.662c-1.44 3.144-2.353 5.981-2.029 6.304s1.766-1.984 3.205-5.128 2.353-5.981 2.029-6.304-1.766 1.984-3.205 5.128m-248.333-2.829c.048 1.165.285 1.402.604.605.289-.722.253-1.585-.079-1.917s-.568.258-.525 1.312m160.872 5.598c-8.772 11.098-9.699 17.318-1.276 8.569 4.383-4.553 5.669-6.662 6.706-11 .999-4.18-.863-3.346-5.43 2.431m96.299.55c-.687.239-1.25 1.304-1.25 2.366s-.551 2.813-1.225 3.892c-1.33 2.129-.048 4.479 1.756 3.219 1.589-1.108 4.469-5.985 4.469-7.566 0-1.611-1.873-2.566-3.75-1.911m-152.936 7.019c-.342.963-.811 2.2-1.042 2.75s.288.126 1.154-.941c1.572-1.939 2.047-3.559 1.043-3.559-.293 0-.812.787-1.155 1.75m71.863 4.338c-.723 1.158-1.124 2.299-.889 2.534.694.693 2.932-2.461 2.553-3.598-.191-.574-.94-.095-1.664 1.064m-83.316 4.971-2.361 2.06 2.75-1.675c1.512-.921 2.75-1.847 2.75-2.059 0-.781-.835-.335-3.139 1.674m-17.937 9.541c-2.277 2.443-13.924 9.05-13.924 7.899 0-.292-1.313.939-2.917 2.735-1.605 1.795-2.772 3.411-2.593 3.589 1.253 1.253 16.713-9.09 19.971-13.36 3.124-4.097 2.866-4.512-.537-.863m126.326 10.173c-3.141 4.609-4.185 8.227-2.372 8.227.482 0 1.342-.562 1.911-1.25 1.445-1.747 5.162-11.75 4.365-11.748-.36.001-2.116 2.148-3.904 4.771m18.481-.302c-3.065 3.84-4.736 9.529-2.801 9.529 1.301 0 6.425-10.435 5.899-12.013-.181-.543-1.575.575-3.098 2.484"/></svg>